Coordinates
version=1
nRows=29
nColumns=22
inDegrees=yes

Units are S.I. units (second, meters, Newtons, ...)
If the header above contains a line with 'inDegrees', this indicates whether rotational values are in degrees (yes) or radians (no).

endheader
time	pelvis_tilt	pelvis_list	pelvis_rotation	pelvis_tx	pelvis_ty	pelvis_tz	hip_flexion_r	hip_adduction_r	hip_rotation_r	knee_angle_r	ankle_angle_r	subtalar_angle_r	hip_flexion_l	hip_adduction_l	hip_rotation_l	knee_angle_l	ankle_angle_l	subtalar_angle_l	lumbar_extension	lumbar_bending	lumbar_rotation
      2.94000000	     -2.44526771	     -0.32793415	      0.71469637	      0.09523771	      1.01819059	      0.35069854	      9.17014327	      1.11666479	     -7.19273476	    -21.71295576	     11.25671836	      3.82592839	     23.63827398	     -9.25158900	    -12.36132815	    -38.23997199	      5.85370715	      8.04006633	     -4.88959599	     -3.70048994	      1.43513085
      2.95000000	     -2.45736693	     -0.35209548	      0.38212621	      0.08885993	      1.01879737	      0.35133906	      9.39864173	      1.20268879	     -6.94243163	    -21.34369562	     10.89207882	      3.89704992	     23.44139308	     -9.38588290	    -11.96169663	    -40.13381864	      5.82729932	      7.99814455	     -4.79623646	     -3.58705180	      1.50593336
      2.96000000	     -2.46198709	     -0.38159919	      0.05751904	      0.08251552	      1.01929386	      0.35186119	      9.62864307	      1.28635755	     -6.68621664	    -20.99991278	     10.55561041	      3.99785895	     23.19099420	     -9.49802819	    -11.54356600	    -41.98752364	      5.78756896	      7.96460194	     -4.71199354	     -3.46587796	      1.55002367
      2.97000000	     -2.49924412	     -0.45240625	     -0.25133991	      0.07615151	      1.01955861	      0.35223599	      9.94675246	      1.39217246	     -6.49669128	    -20.76181334	     10.28179457	      4.14287008	     22.94964361	     -9.63686891	    -11.12962929	    -43.82511449	      5.86844868	      7.92734655	     -4.59511659	     -3.28579986	      1.54703135
      2.98000000	     -2.50801430	     -0.51869463	     -0.55158066	      0.06985065	      1.01979253	      0.35251627	     10.23638400	      1.49100062	     -6.27840270	    -20.53685325	     10.02425722	      4.30486370	     22.60923263	     -9.75067583	    -10.73388758	    -45.56972374	      5.90467891	      7.87966296	     -4.50453930	     -3.11325065	      1.52163342
      2.99000000	     -2.53683630	     -0.61022823	     -0.83747118	      0.06354457	      1.01987035	      0.35269137	     10.58942339	      1.60167210	     -6.12009396	    -20.39489917	      9.81550484	      4.52152158	     22.24050085	     -9.88181946	    -10.36831305	    -47.24146142	      6.03394003	      7.81182030	     -4.39338479	     -2.90946165	      1.45583698
      3.00000000	     -2.57275174	     -0.69759789	     -1.10405881	      0.05726129	      1.01985657	      0.35275932	     10.97785210	      1.69805307	     -5.98257580	    -20.31382212	      9.64470742	      4.78825516	     21.81396907	     -9.99433250	    -10.03715237	    -48.80146974	      6.16959142	      7.72651102	     -4.26933728	     -2.71091910	      1.35123288
      3.01000000	     -2.61206605	     -0.78726243	     -1.35746733	      0.05097961	      1.01976810	      0.35273780	     11.39627084	      1.78838338	     -5.87056250	    -20.28524417	      9.51061132	      5.10517174	     21.32235626	    -10.09871365	     -9.74552454	    -50.23320420	      6.33329250	      7.61784779	     -4.14134098	     -2.51109380	      1.21331502
      3.02000000	     -2.67008921	     -0.85784161	     -1.58670977	      0.04468462	      1.01959990	      0.35260286	     11.86446624	      1.84703773	     -5.77473839	    -20.31580101	      9.42958983	      5.58650489	     20.78603580	    -10.16504229	     -9.48227855	    -51.52145450	      6.43940387	      7.47230910	     -3.98987719	     -2.33399393	      1.03023944
      3.03000000	     -2.70505824	     -0.94134217	     -1.80451853	      0.03840829	      1.01940875	      0.35240082	     12.32168712	      1.91575573	     -5.69121233	    -20.37480849	      9.35317917	      6.00626137	     20.15274133	    -10.23994706	     -9.26548007	    -52.65709749	      6.57945004	      7.35002836	     -3.86142547	     -2.14699376	      0.82972938
      3.04000000	     -2.74114402	     -1.02300227	     -2.00090175	      0.03212543	      1.01916205	      0.35210115	     12.79600827	      1.97741782	     -5.60902598	    -20.46525522	      9.29388915	      6.43649966	     19.45582076	    -10.29576725	     -9.06937186	    -53.63202855	      6.71306519	      7.25892350	     -3.72944521	     -1.96454546	      0.60057451
      3.05000000	     -2.77529034	     -1.09133116	     -2.17995249	      0.02583251	      1.01886873	      0.35170505	     13.29215537	      2.01497581	     -5.55424212	    -20.59917444	      9.23715261	      6.92720002	     18.69381038	    -10.32640114	     -8.91039405	    -54.43807007	      6.79092493	      7.21263852	     -3.59764067	     -1.80028721	      0.35111963
      3.06000000	     -2.80096748	     -1.15319346	     -2.34272993	      0.01952604	      1.01853232	      0.35122325	     13.79187842	      2.04219959	     -5.50188167	    -20.75475754	      9.17383357	      7.40666331	     17.86428885	    -10.33542698	     -8.77420645	    -55.07184600	      6.83494991	      7.22018357	     -3.47306257	     -1.64942520	      0.08624783
      3.07000000	     -2.82225371	     -1.21625858	     -2.48707480	      0.01321590	      1.01814289	      0.35064684	     14.29471582	      2.06858396	     -5.44926921	    -20.92391346	      9.09856201	      7.85372173	     16.97440936	    -10.32872071	     -8.65410544	    -55.53080285	      6.86961505	      7.26409388	     -3.35061847	     -1.50053702	     -0.19149007
      3.08000000	     -2.84027074	     -1.28464550	     -2.61328063	      0.00689424	      1.01768969	      0.34997635	     14.80173136	      2.09718782	     -5.39970987	    -21.10605555	      9.01961347	      8.27314237	     16.03312026	    -10.31124368	     -8.54413509	    -55.81890707	      6.89485236	      7.32637968	     -3.22744457	     -1.35018788	     -0.47576738
      3.09000000	     -2.85838972	     -1.36087310	     -2.72166049	      0.00054246	      1.01716277	      0.34920820	     15.31347549	      2.13147750	     -5.35520214	    -21.29243083	      8.92758199	      8.66287898	     15.05270760	    -10.28524258	     -8.44172242	    -55.94337801	      6.91885440	      7.39364726	     -3.10443603	     -1.19422196	     -0.76706117
      3.10000000	     -2.87724517	     -1.44962321	     -2.81092696	     -0.00585052	      1.01655070	      0.34833393	     15.83501309	      2.17361443	     -5.31981533	    -21.49218390	      8.84484155	      9.03903108	     14.04308925	    -10.25492117	     -8.33752444	    -55.91405196	      6.91495924	      7.46845449	     -2.98216153	     -1.02730480	     -1.05468375
      3.11000000	     -2.90645154	     -1.54703565	     -2.87986066	     -0.01228060	      1.01584562	      0.34735214	     16.36765718	      2.21989026	     -5.29211706	    -21.68690816	      8.73873034	      9.36727795	     13.01931477	    -10.21876806	     -8.23542598	    -55.73467653	      6.89575627	      7.54758402	     -2.84781282	     -0.85264198	     -1.35807673
      3.12000000	     -2.94458875	     -1.65580895	     -2.92936964	     -0.01878595	      1.01504203	      0.34626415	     16.91776496	      2.27025594	     -5.28329419	    -21.88842419	      8.62992716	      9.67791421	     11.99046993	    -10.17817736	     -8.12399354	    -55.41528754	      6.83954532	      7.65184477	     -2.70993016	     -0.66793621	     -1.65856591
      3.13000000	     -2.99576157	     -1.77370020	     -2.96044557	     -0.02536971	      1.01413342	      0.34505916	     17.49183417	      2.31946654	     -5.29746527	    -22.10007616	      8.51610355	      9.96890990	     10.96788991	    -10.13157824	     -8.00403623	    -54.96589370	      6.74850107	      7.79883368	     -2.56571875	     -0.47361865	     -1.96413774
      3.14000000	     -3.06454258	     -1.89083387	     -2.97071016	     -0.03201991	      1.01313046	      0.34372573	     18.08754229	      2.35542482	     -5.33966688	    -22.30770169	      8.36828407	     10.22980665	      9.95880538	    -10.06340184	     -7.86528153	    -54.38342199	      6.61976503	      7.99570572	     -2.40396547	     -0.27997063	     -2.28153868
      3.15000000	     -3.13868631	     -2.00937343	     -2.96303258	     -0.03877979	      1.01204033	      0.34228106	     18.71032353	      2.37791487	     -5.41981327	    -22.54300068	      8.23197459	     10.51009073	      8.95841267	     -9.97839625	     -7.70639680	    -53.67568746	      6.46510618	      8.29610364	     -2.25007722	     -0.08935727	     -2.59103383
      3.16000000	     -3.23799834	     -2.10872634	     -2.92723067	     -0.04562477	      1.01088187	      0.34068343	     19.35695864	      2.36639905	     -5.51926911	    -22.75581624	      8.02613138	     10.72488200	      7.98972381	     -9.84362044	     -7.50392067	    -52.82945464	      6.25431093	      8.62045682	     -2.07301168	      0.08167534	     -2.92818606
      3.17000000	     -3.33169626	     -2.19453411	     -2.88454408	     -0.05259445	      1.00966101	      0.33895648	     20.02882643	      2.32193710	     -5.67455347	    -23.01030377	      7.83967027	     10.96509940	      7.02365286	     -9.66417223	     -7.26508545	    -51.85747663	      6.03750113	      9.11441007	     -1.91820057	      0.23633402	     -3.23443052
      3.18000000	     -3.44592299	     -2.25025516	     -2.80837143	     -0.05967393	      1.00840353	      0.33706889	     20.71295117	      2.23660266	     -5.82087264	    -23.22614113	      7.57330690	     11.12634955	      6.09427923	     -9.41495522	     -6.95502574	    -50.74194809	      5.75321793	      9.58086643	     -1.74815955	      0.35863040	     -3.57708483
      3.19000000	     -3.54828606	     -2.28285375	     -2.72697915	     -0.06688922	      1.00710679	      0.33505095	     21.41154992	      2.10915978	     -6.02559003	    -23.47338280	      7.32645860	     11.28948272	      5.16449415	     -9.10904040	     -6.59711091	    -49.49076063	      5.49013482	     10.25895361	     -1.60810534	      0.45180982	     -3.86330491
      3.20000000	     -3.65697763	     -2.29534160	     -2.62063227	     -0.07424807	      1.00579000	      0.33289218	     22.10880743	      1.95388305	     -6.21835555	    -23.68456089	      7.02351888	     11.40007126	      4.26247527	     -8.74998188	     -6.17035568	    -48.09863175	      5.20913503	     10.94522826	     -1.47507000	      0.52229710	     -4.16048791
      3.21000000	     -3.76512717	     -2.29587837	     -2.49481060	     -0.08175298	      1.00445573	      0.33060705	     22.79533786	      1.77934879	     -6.40497709	    -23.85844058	      6.69614238	     11.47782500	      3.37907067	     -8.35836083	     -5.70007052	    -46.56279865	      4.95416866	     11.68438788	     -1.35749255	      0.57873301	     -4.45971651
      3.22000000	     -3.86646285	     -2.27806845	     -2.32848154	     -0.08942322	      1.00310868	      0.32815598	     23.46697797	      1.56481972	     -6.62691627	    -24.00428189	      6.40516558	     11.50775887	      2.51636995	     -7.92275104	     -5.15423579	    -44.88559396	      4.69630949	     12.22661151	     -1.26467148	      0.61090782	     -4.75447657
